<svg width="31" height="47" viewBox="0 0 31 47" fill="none" xmlns="http://www.w3.org/2000/svg">
<path d="M26.0279 21.2356C27.7678 24.5067 29.4111 27.5963 29.4111 31.1284C29.4111 38.6691 23.2704 44.9003 15.7222 45.0204L15.5175 45.0224C9.38073 45.0224 3.85001 40.6756 2.06987 34.4498C0.627377 29.408 2.73803 25.4379 4.97415 21.236L15.5002 2.0935L26.0279 21.2356ZM15.4999 0C15.1098 0 14.7197 0.196967 14.5073 0.59089C12.9818 3.4044 11.4563 6.21406 9.93077 9.01403C7.91286 12.7448 5.73077 16.3674 3.76679 20.1155C1.3665 24.6361 -1.12257 29.0656 0.540056 34.8841C2.46914 41.6329 8.52125 46.6114 15.5172 46.6114C15.5945 46.6114 15.6698 46.6114 15.747 46.6095C24.1934 46.4782 31 39.5903 31 31.1306C31 27.058 29.0902 23.615 27.2326 20.118C25.2687 16.3699 23.0866 12.7474 21.0686 9.01654C19.5431 6.21846 18.0175 3.40672 16.492 0.593408C16.2796 0.197547 15.8895 0.000590247 15.4995 0.000590247L15.4999 0Z" fill="#424348"/>
<path d="M18.5939 39.8723C18.1111 39.8723 17.6959 39.5074 17.6457 39.0149C17.5917 38.4916 17.974 38.0243 18.4973 37.9702C21.7164 37.6439 24.335 35.3016 25.0148 32.1404C25.1248 31.6248 25.6346 31.2985 26.1464 31.4085C26.662 31.5186 26.9883 32.0265 26.8783 32.5401C26.0247 36.5123 22.7343 39.457 18.6909 39.8663C18.6581 39.8702 18.6253 39.8721 18.5944 39.8721L18.5939 39.8723Z" fill="#424348"/>
</svg>
