<svg width="101" height="75" viewBox="0 0 101 75" fill="none" xmlns="http://www.w3.org/2000/svg">
<path d="M44.385 60.5339L33.6128 39.3876C33.3286 38.1045 33.1704 36.707 33.1586 35.207V35.1953C33.1352 33.1503 33.7504 31.0234 34.978 28.8671C35.5698 27.8213 35.7046 26.6845 35.6928 25.8115H36.5337C36.9087 25.8115 37.2602 25.6299 37.4653 25.3222L42.0444 18.6748C42.2261 18.4023 42.2935 18.0712 42.2144 17.7548C42.1353 17.4355 41.9302 17.1747 41.6343 17.0165L32.9538 12.4931C32.4762 12.2441 31.8961 12.3554 31.5563 12.7773C31.2282 13.1757 30.8854 13.5156 30.5573 13.8467L24.0094 9.47558V8.78417C25.6471 8.29492 26.8513 6.77147 26.8513 4.97852C26.8513 2.78417 25.0671 1 22.8727 1C20.6784 1 18.8942 2.78417 18.8942 4.97852C18.8942 5.60255 19.4069 6.11522 20.0309 6.11522C20.6549 6.11522 21.1676 5.60253 21.1676 4.97852C21.1676 4.03517 21.9293 3.27347 22.8727 3.27347C23.816 3.27347 24.5777 4.03517 24.5777 4.97852C24.5777 5.91895 23.816 6.68065 22.8727 6.68065C22.2486 6.68065 21.736 7.19334 21.736 7.81735V9.47552L15.2028 13.8291C14.8629 13.5009 14.5319 13.1582 14.192 12.7597C13.8522 12.3495 13.2721 12.2382 12.7945 12.4755L4.11403 16.9989C3.82985 17.1454 3.61305 17.4208 3.53395 17.7372C3.45485 18.0565 3.51051 18.3847 3.70387 18.6572L8.28299 25.3046C8.49979 25.6122 8.83964 25.7939 9.21464 25.7939H10.0672C10.0555 26.6581 10.1931 27.7949 10.782 28.8408C12.0095 31.0116 12.6218 33.1474 12.6014 35.1806V35.204V35.2157C12.5779 36.6923 12.4197 38.0897 12.1473 39.3759L1.37501 60.5222C0.944342 61.363 0.885752 62.318 1.19336 63.2028C1.50098 64.0905 2.17189 64.817 3.03319 65.192C5.85154 66.4547 8.80466 67.4303 11.8284 68.1364L11.6468 69.2966C11.5003 70.2047 11.7376 71.1599 12.2943 71.8982C12.8509 72.6364 13.6478 73.1023 14.556 73.2165C17.3157 73.5564 20.0901 73.7263 22.8735 73.7263C25.6568 73.7263 28.4428 73.5564 31.191 73.2136C32.0991 73.0993 32.896 72.6335 33.4527 71.8952C34.0093 71.157 34.2495 70.2136 34.1001 69.2936L33.9185 68.1335C36.9419 67.4303 39.8951 66.4518 42.7137 65.1891C43.5662 64.8024 44.2371 64.0758 44.5535 63.1999C44.8729 62.318 44.8055 61.3747 44.3866 60.5339L44.385 60.5339ZM31.146 38.6136H14.5995C14.7138 37.8871 14.7929 37.137 14.828 36.3402H30.9065C30.9534 37.1136 31.0317 37.8754 31.146 38.6136ZM22.8728 11.4524L28.6794 15.3166C25.7467 17.1799 23.1804 16.8723 23.0427 16.8518C22.9284 16.8401 22.8142 16.8401 22.7146 16.8518C22.6794 16.8518 20.0662 17.2034 17.0779 15.3166L22.8728 11.4524ZM12.4283 24.9404C12.5074 24.6005 12.44 24.2461 12.2232 23.9619C12.0064 23.6894 11.6782 23.5312 11.3267 23.5312H9.815L6.3023 18.4394L13.064 14.9179C17.2681 19.4062 21.926 19.2128 22.8695 19.1337C23.722 19.2128 27.5628 19.3622 31.3917 16.1454C31.4035 16.1337 31.4152 16.1337 31.4152 16.122C31.8371 15.7587 32.256 15.372 32.6779 14.9296L39.4396 18.4511L35.9269 23.5429H34.4152C34.0636 23.5429 33.7326 23.7011 33.5187 23.9736C33.3019 24.2461 33.2228 24.6093 33.3136 24.9521C33.3136 24.9638 33.6769 26.5312 32.9943 27.7471C31.7902 29.8711 31.0959 31.9863 30.9259 34.0752L14.8272 34.0781C14.6573 31.9981 13.9512 29.874 12.7471 27.75C12.0645 26.5225 12.4283 24.9521 12.4283 24.9404ZM3.9525 63.1349C3.6566 62.9972 3.43981 62.7599 3.32848 62.464C3.22594 62.1681 3.24938 61.8517 3.38414 61.5675L13.9194 40.887H16.1342L12.1674 65.898C9.34904 65.2271 6.58913 64.3068 3.9525 63.1349ZM31.644 70.5324C31.4624 70.7697 31.2016 70.9191 30.9174 70.9542C25.5766 71.6134 20.1684 71.6134 14.8277 70.9542C14.5435 70.9191 14.2828 70.7726 14.1011 70.5324C13.9078 70.2833 13.8287 69.964 13.8843 69.6564L18.44 40.8841H27.302L31.8576 69.6564C31.9192 69.9757 31.8374 70.2833 31.644 70.5324ZM42.4193 62.4526C42.3167 62.7602 42.0911 62.9975 41.7952 63.1235C39.1585 64.3042 36.3988 65.227 33.5805 65.8862L29.6107 40.8842H31.8256L42.3608 61.5647C42.4985 61.8401 42.5189 62.1596 42.4193 62.4526Z" fill="#424348" stroke="white"/>
<path d="M99.8899 31.402L95.2961 19.152C95.2176 18.9415 95.0492 18.775 94.8367 18.7003L83.9455 14.8569L81.419 11.3196V11.3216C81.2754 11.1206 81.0438 11 80.7969 11H73.1407C72.8937 11 72.6602 11.1187 72.5167 11.3216L69.9902 14.8588L59.1048 18.7003C58.8923 18.7749 58.7239 18.9414 58.6454 19.152L54.0517 31.402C54.0191 31.4881 54 31.58 54 31.6719V56.1719C54 56.3748 54.0804 56.57 54.2239 56.7136C54.3675 56.8571 54.5627 56.9375 54.7656 56.9375H60.8906C61.0935 56.9375 61.2888 56.8571 61.4323 56.7136C61.5759 56.57 61.6563 56.3748 61.6563 56.1719V34.9142L63.5417 31.1435L64.713 39.3432L63.1914 54.5636C63.1492 54.9751 63.4421 55.3445 63.8517 55.3981L75.3363 56.9293C75.7498 56.9848 76.1307 56.6996 76.1938 56.2881L76.969 51.2524L77.7442 56.2861V56.2881C77.8074 56.6996 78.1883 56.9848 78.6017 56.9293L90.0863 55.398C90.4978 55.3463 90.7907 54.975 90.7505 54.5635L89.225 39.3431L90.3964 31.1435L92.2818 34.9142V56.1718C92.2818 56.3747 92.3622 56.57 92.5057 56.7135C92.6493 56.8571 92.8445 56.9375 93.0474 56.9375H99.1724C99.3753 56.9375 99.5705 56.8571 99.7141 56.7135C99.8577 56.57 99.938 56.3747 99.938 56.1718V31.6718C99.938 31.58 99.9227 31.4881 99.8902 31.402L99.8899 31.402ZM81.7868 19.1981L82.9506 20.3638L78.6631 30.3627L81.2643 13.737L83.542 16.9277L81.9035 18.0207V18.0188C81.7121 18.147 81.5896 18.3518 81.5667 18.5815C81.5437 18.8093 81.6241 19.0351 81.7868 19.1978L81.7868 19.1981ZM72.0348 18.0191L70.3964 16.9261L72.6741 13.7373L75.2715 30.363L70.984 20.3641L72.1477 19.1984H72.1496C72.3104 19.0357 72.3927 18.8098 72.3698 18.5821C72.3468 18.3524 72.2224 18.1476 72.0329 18.0194L72.0348 18.0191ZM79.6641 14.0627H74.2741L74.0349 12.5315H79.9036L79.6641 14.0627ZM79.4249 15.594L76.9691 31.3083L74.5134 15.594H79.4249ZM74.7948 55.3143L64.788 53.9802L66.2503 39.4047C66.2561 39.3434 66.2542 39.2803 66.2465 39.219L64.7153 28.5003C64.7153 28.4811 64.7019 28.4639 64.698 28.4448H64.7057L63.1744 21.5544L61.6795 21.8874L63.1515 28.5122L60.2095 34.3942C60.156 34.4995 60.1272 34.6162 60.1253 34.7349V55.407H55.5316V31.8125L59.9511 20.0256L68.5644 16.9861C68.5452 17.0779 68.5452 17.1717 68.5605 17.2636C68.5969 17.4684 68.7156 17.6483 68.8878 17.7631L70.4076 18.7757L69.5367 19.6466C69.3166 19.8686 69.2515 20.2016 69.374 20.4888L76.2037 36.4197V46.1584L74.7948 55.3143ZM98.4069 55.4062H93.8131V34.7341C93.815 34.6154 93.7882 34.4987 93.7366 34.3915L90.7908 28.5095L92.2627 21.8847L90.7679 21.5517L89.2366 28.442H89.2443C89.2404 28.4612 89.229 28.4784 89.227 28.4976L87.6958 39.2163C87.6881 39.2795 87.6881 39.3407 87.6958 39.402L89.1505 53.9775L79.1437 55.3116L77.735 46.1604V36.4177L84.5646 20.4849C84.6871 20.1978 84.622 19.8647 84.4019 19.6427L83.531 18.7737L85.0508 17.7612C85.3073 17.5927 85.4355 17.2846 85.3743 16.9841L93.9875 20.0236L98.4071 31.8105L98.4069 55.4062Z" fill="#424348" stroke="white" stroke-width="0.3"/>
<path d="M78.5 39.3281C78.5 38.9052 78.8428 38.5624 79.2656 38.5624C79.6885 38.5624 80.0312 38.9052 80.0312 39.3281C80.0312 39.7509 79.6885 40.0937 79.2656 40.0937C78.8428 40.0937 78.5 39.7509 78.5 39.3281Z" fill="#424348" stroke="white" stroke-width="0.3"/>
<path d="M78.5 43.9218C78.5 43.499 78.8428 43.1562 79.2656 43.1562C79.6885 43.1562 80.0312 43.499 80.0312 43.9218C80.0312 44.3447 79.6885 44.6874 79.2656 44.6874C78.8428 44.6874 78.5 44.3447 78.5 43.9218Z" fill="#424348" stroke="white" stroke-width="0.3"/>
<path d="M73 8.5L73.5 6.5L75 5.5L77.5 5L79.5 6L80.5 8V11L78 12.5L77.5 13L80.6387 15L80.5 17L77 15.5L74.5 16.5L74 14L75.5 13L76 11H77.5L78 10L78.5 9L78 7.5H76L75 8.5L74.5 10H73.5L73 8.5Z" fill="#424348"/>
<path d="M79.5 13.5L77.8066 13.4756V12.7842C79.4443 12.2949 80.6485 10.7715 80.6485 8.97852C80.6485 6.78417 78.8643 5 76.6699 5C74.4756 5 72.6914 6.78417 72.6914 8.97852C72.6914 9.60255 73.2041 10.1152 73.8281 10.1152C74.4521 10.1152 74.9648 9.60253 74.9648 8.97852C74.9648 8.03517 75.7265 7.27347 76.6699 7.27347C77.6132 7.27347 78.3749 8.03517 78.3749 8.97852C78.3749 9.91895 77.6132 10.6806 76.6699 10.6806C76.0458 10.6806 75.5332 11.1933 75.5332 11.8173V13.4755L74 13.5M79.4999 16.8592L76.6699 15.3116L74.5 17" stroke="white"/>
</svg>
