<svg width="46" height="47" viewBox="0 0 46 47" fill="none" xmlns="http://www.w3.org/2000/svg">
<path d="M22.8379 24.2355C22.9989 24.2331 23.1551 24.1692 23.2687 24.0532C30.0425 17.2794 30.9131 16.4064 30.9131 14.0204C30.9037 12.1033 29.7061 10.3969 27.9074 9.73187C26.1111 9.06915 24.0922 9.58986 22.8378 11.0383C21.5788 9.58276 19.5457 9.06443 17.7447 9.74132C15.9436 10.4182 14.7531 12.1435 14.7625 14.0677C14.7625 16.4557 15.6359 17.3267 22.4094 24.1006H22.4071C22.5278 24.2 22.6816 24.2473 22.8378 24.2355L22.8379 24.2355ZM19.3541 10.6315C20.58 10.6315 21.709 11.2918 22.3102 12.3593C22.419 12.551 22.6202 12.667 22.8379 12.6693C23.058 12.6764 23.2639 12.5557 23.3657 12.3593C24.1207 11.0197 25.6851 10.357 27.1738 10.7451C28.6625 11.1357 29.7015 12.48 29.7015 14.0207C29.7015 15.8383 29.0956 16.4986 22.8381 22.7703C16.5659 16.4915 15.9746 15.8123 15.9746 14.0207C15.977 12.1533 17.4869 10.6386 19.3543 10.6315L19.3541 10.6315ZM45.7646 45.7729V45.7113V20.3944C45.767 20.3779 45.767 20.3613 45.7646 20.3447V20.2785V20.2122C45.7552 20.1791 45.7433 20.1506 45.7291 20.1199V20.0584V20.0276L45.6558 19.9542L36.4705 13.2895V0.605885C36.4705 0.44495 36.4066 0.291109 36.293 0.177506C36.1794 0.0639025 36.0256 0 35.8647 0H9.93945C9.60337 0 9.33356 0.269807 9.33356 0.605885V13.2634L0.155615 19.9282H0.153249C0.117747 19.9542 0.0846138 19.9873 0.0562099 20.0228V20.0654C0.037276 20.108 0.0183423 20.1506 0.00177494 20.1932C0.00650811 20.2098 0.00650811 20.2264 0.00177494 20.2429C0.00650811 20.2571 0.00650811 20.2713 0.00177494 20.2855V20.3589V45.7067C-0.000591647 45.7375 -0.000591647 45.7682 0.00177494 45.799V45.8771C0.0159751 45.9245 0.0372759 45.9694 0.0633084 46.0097C0.0609418 46.0286 0.0609418 46.0475 0.0633084 46.0641H0.0940766C0.117744 46.0949 0.146145 46.1209 0.179276 46.1446C0.212411 46.1706 0.25028 46.1943 0.288147 46.2156H45.1709C45.1969 46.2203 45.223 46.2203 45.249 46.2156C45.3082 46.2108 45.365 46.199 45.4194 46.1801L45.5046 46.1185C45.5496 46.0901 45.5898 46.0546 45.6253 46.0168H45.6632C45.6655 45.9931 45.6655 45.9671 45.6632 45.9434C45.6821 45.9126 45.6987 45.8819 45.7105 45.8464C45.7295 45.8227 45.7484 45.7943 45.7649 45.7682L45.7646 45.7729ZM9.33337 26.0271L2.38447 20.9977L9.33337 21.0001V26.0271ZM1.11151 21.5752L16.9736 33.0495L1.11151 44.5255V21.5752ZM22.8379 30.2987L43.2987 45.1005H2.38266L22.8379 30.2987ZM28.7098 33.0489L44.5646 21.5795V44.5201L28.7098 33.0489ZM36.3452 20.9973L43.2989 20.9996L36.3434 26.029L36.3452 20.9973ZM43.3007 19.7855L36.3428 19.7879V14.7585L43.3007 19.7855ZM10.5454 1.21148H35.131V26.9071L27.6853 32.3056L23.2074 29.0632C22.9968 28.9093 22.7104 28.9093 22.4997 29.0632L17.9911 32.3056L10.5454 26.9071V1.21148ZM9.33361 19.7879H2.38229L9.33119 14.7586L9.33361 19.7879Z" fill="#424348"/>
</svg>
