<svg width="200" height="78" viewBox="0 0 200 78" fill="none" xmlns="http://www.w3.org/2000/svg">
<path d="M30.03 44.34H14.42L9.94 55.61C9.70667 56.17 9.59 56.6367 9.59 57.01C9.59 57.99 11.0133 58.69 13.86 59.11C14.1867 59.1567 14.3967 59.2967 14.49 59.53C14.63 59.7167 14.7 59.95 14.7 60.23C14.7 60.51 14.6533 60.8833 14.56 61.35C13.3 61.2567 11.97 61.1633 10.57 61.07C9.17 61.0233 7.79333 61 6.44 61C5.50667 61 4.55 61.0233 3.57 61.07C2.59 61.1167 1.56333 61.21 0.49 61.35C0.396667 60.9767 0.35 60.6033 0.35 60.23C0.35 59.9033 0.396667 59.6233 0.49 59.39C0.63 59.1567 0.886667 59.0167 1.26 58.97C2.70667 58.7367 3.78 58.4567 4.48 58.13C5.22667 57.7567 5.76333 57.1967 6.09 56.45L22.96 15.85C23.2867 15.0567 23.73 14.66 24.29 14.66C24.4767 14.66 24.7567 14.7067 25.13 14.8L42.07 56.66C42.35 57.3133 42.98 57.8267 43.96 58.2C44.94 58.5733 45.8967 58.83 46.83 58.97C47.11 59.0633 47.32 59.2033 47.46 59.39C47.6467 59.53 47.74 59.81 47.74 60.23C47.74 60.51 47.6933 60.8833 47.6 61.35C46.1067 61.2567 44.6367 61.1633 43.19 61.07C41.7433 61.0233 40.39 61 39.13 61C37.8233 61 36.33 61.0233 34.65 61.07C32.97 61.1633 31.4533 61.2567 30.1 61.35C30.0067 60.8833 29.96 60.51 29.96 60.23C29.96 59.81 30.03 59.53 30.17 59.39C30.3567 59.2033 30.52 59.11 30.66 59.11C31.8733 58.8767 32.8533 58.62 33.6 58.34C34.3467 58.0133 34.72 57.5467 34.72 56.94C34.72 56.66 34.6267 56.31 34.44 55.89L30.03 44.34ZM28.91 41.47L22.4 24.32L15.61 41.47H28.91Z" fill="#424348"/>
<path d="M182.27 16.83C182.363 16.6433 182.457 16.4567 182.55 16.27C182.69 16.0833 182.9 15.9433 183.18 15.85C183.46 15.7567 183.833 15.6867 184.3 15.64C184.767 15.5467 185.42 15.5 186.26 15.5C186.633 15.5 187.123 15.5 187.73 15.5C188.337 15.4533 188.99 15.43 189.69 15.43C190.39 15.3833 191.09 15.3367 191.79 15.29C192.537 15.2433 193.213 15.1967 193.82 15.15C193.913 15.6167 193.96 15.99 193.96 16.27C193.96 17.0167 193.727 17.4133 193.26 17.46C191.58 17.6933 190.46 18.02 189.9 18.44C189.34 18.8133 189.06 19.3267 189.06 19.98C189.06 20.0267 189.083 20.6567 189.13 21.87C189.223 23.0367 189.34 25.02 189.48 27.82C189.62 30.5733 189.783 34.26 189.97 38.88C190.203 43.5 190.46 49.24 190.74 56.1C190.787 56.9867 191.09 57.64 191.65 58.06C192.21 58.48 193.353 58.83 195.08 59.11C195.313 59.1567 195.477 59.2967 195.57 59.53C195.71 59.7167 195.78 59.95 195.78 60.23C195.78 60.51 195.733 60.8833 195.64 61.35C194.007 61.2567 192.513 61.1633 191.16 61.07C189.853 61.0233 188.64 61 187.52 61C187.053 61 186.47 61 185.77 61C185.07 61.0467 184.323 61.07 183.53 61.07C182.783 61.1167 182.037 61.1633 181.29 61.21C180.543 61.2567 179.89 61.3033 179.33 61.35C179.237 60.8833 179.19 60.51 179.19 60.23C179.19 59.4833 179.423 59.11 179.89 59.11C181.757 58.7367 183.017 58.3633 183.67 57.99C184.37 57.6167 184.72 56.9867 184.72 56.1C184.72 55.96 184.673 55.0967 184.58 53.51C184.533 51.9233 184.44 49.9867 184.3 47.7C184.207 45.4133 184.09 42.94 183.95 40.28C183.857 37.62 183.74 35.1233 183.6 32.79C183.507 30.41 183.413 28.38 183.32 26.7C183.227 24.9733 183.18 23.9233 183.18 23.55L167.85 60.58C167.663 61 167.477 61.3033 167.29 61.49C167.15 61.7233 166.94 61.84 166.66 61.84C166.333 61.84 166.123 61.8167 166.03 61.77L148.88 22.43C148.833 22.8967 148.763 24.04 148.67 25.86C148.623 27.6333 148.53 29.7567 148.39 32.23C148.297 34.7033 148.18 37.3167 148.04 40.07C147.9 42.8233 147.76 45.3667 147.62 47.7C147.527 50.0333 147.433 51.9933 147.34 53.58C147.293 55.1667 147.27 56.0067 147.27 56.1C147.27 57.5467 148.857 58.55 152.03 59.11C152.497 59.1567 152.73 59.53 152.73 60.23C152.73 60.51 152.683 60.8833 152.59 61.35C151.33 61.2567 150.093 61.1633 148.88 61.07C147.667 61.0233 146.593 61 145.66 61C144.913 61 143.91 61.0233 142.65 61.07C141.39 61.1633 140.2 61.2567 139.08 61.35C138.987 60.8833 138.94 60.51 138.94 60.23C138.94 59.5767 139.173 59.2033 139.64 59.11C140.9 58.8767 141.903 58.55 142.65 58.13C143.443 57.6633 143.887 56.9867 143.98 56.1C143.98 55.68 144.027 54.5133 144.12 52.6C144.213 50.64 144.307 48.33 144.4 45.67C144.54 43.01 144.68 40.1867 144.82 37.2C144.96 34.2133 145.077 31.46 145.17 28.94C145.31 26.3733 145.403 24.2733 145.45 22.64C145.543 20.96 145.59 20.0967 145.59 20.05C145.59 19.3033 145.287 18.7667 144.68 18.44C144.12 18.0667 143.023 17.74 141.39 17.46C140.923 17.4133 140.69 17.0167 140.69 16.27C140.69 15.99 140.737 15.6167 140.83 15.15C141.437 15.1967 142.113 15.2433 142.86 15.29C143.653 15.3367 144.423 15.3833 145.17 15.43C145.963 15.43 146.71 15.4533 147.41 15.5C148.11 15.5 148.67 15.5 149.09 15.5C149.93 15.5 150.583 15.5467 151.05 15.64C151.517 15.6867 151.89 15.7567 152.17 15.85C152.45 15.9433 152.637 16.0833 152.73 16.27C152.87 16.4567 152.987 16.6433 153.08 16.83L168.06 51.76L182.27 16.83Z" fill="#424348"/>
<path d="M98 14V64" stroke="#424348" stroke-linecap="round"/>
</svg>
